<?xml version="1.0" encoding="utf-8"?>
<!-- Generator: Adobe Illustrator 24.3.0, SVG Export Plug-In . SVG Version: 6.00 Build 0)  -->
<svg version="1.1" id="Layer_1" xmlns="http://www.w3.org/2000/svg" xmlns:xlink="http://www.w3.org/1999/xlink" x="0px" y="0px"
	 viewBox="0 0 60 60" style="enable-background:new 0 0 60 60;" xml:space="preserve">
<style type="text/css">
	.st0{fill:#04928F;}
	.st1{fill:#F59C00;}
	.st2{fill:#00AA80;}
	.st3{fill:#FFCE00;}
</style>
<g>
	<path class="st0" d="M22.9,18.6c0.2,0,0.5,0.1,0.7,0.1c1.1-2.1,2.4-4,3.9-5.8c-3.5-2.8-7.5-5-12.2-6.6L22.9,18.6z M42.6,34.1L30,30
		l14.8,23.7C45.7,46.6,44.8,40.1,42.6,34.1"/>
	<path class="st1" d="M21.9,25c5.5-8.7,12.6-15.1,22.9-18.6L30,30L15.2,53.7C13.9,42.9,16.5,33.7,21.9,25"/>
	<path class="st2" d="M0.6,20.5l15.7,5.1c1.6-0.9,3.4-1.7,5.1-2.5c0.2-0.6,0.5-1.1,0.7-1.7c0.4-0.9,0.9-1.8,1.4-2.7
		C16,17.5,8.4,17.9,0.6,20.5 M43.7,25.6L30,30l29.4,9.5C55,33.5,49.7,28.9,43.7,25.6"/>
	<path class="st3" d="M0.6,39.5l16.8-5.5c0.6-1.6,1.3-3.2,2.1-4.8c0.5-2.1,1.1-4.2,2-6.2C13.2,26.6,6.2,31.8,0.6,39.5 M37.1,18.6
		L30,30l29.4-9.5C51.8,18,44.5,17.5,37.1,18.6"/>
</g>
</svg>
